<svg width="40" height="40" viewBox="0 0 40 40" fill="none" xmlns="http://www.w3.org/2000/svg">
<path d="M13.0081 6.10796C13.016 6.04323 13.0245 5.9785 13.0324 5.91443C13.037 5.87062 13.0416 5.82681 13.0462 5.78235C13.306 4.40079 13.8748 3.16112 14.8754 2.16401C16.8811 0.165884 19.283 -0.467031 21.9999 0.34242C24.2044 0.998874 25.6767 2.48962 26.4785 4.63094C26.7593 5.38155 26.8754 6.16812 26.878 6.96907C26.8833 8.33036 26.8807 9.69165 26.8839 11.0529C26.8852 11.612 27.193 11.9147 27.7572 11.916C29.0687 11.918 30.3803 11.916 31.6918 11.916C34.54 11.9173 36.692 13.1688 38.0363 15.6396C39.0251 17.4566 39.1005 19.4077 38.3486 21.3587C37.701 23.0398 36.5384 24.2677 34.9369 25.0699C34.021 25.5289 33.0342 25.7708 32.0002 25.7754C30.2957 25.7826 28.5905 25.7852 26.8859 25.7891C26.2278 25.7891 25.5698 25.7891 24.9117 25.7898C24.7811 25.7852 24.6506 25.7774 24.5194 25.7774C21.4547 25.7761 18.3901 25.7761 15.3261 25.7761C15.1955 25.7761 15.065 25.7859 14.9344 25.7904C14.0618 25.8892 13.1032 25.2275 12.9668 24.4422C12.9313 24.2369 12.9392 24.0323 12.9084 23.8289C12.9812 23.7086 12.9595 23.5752 12.9595 23.4464C12.9602 20.3773 12.9602 17.3089 12.9595 14.2397C12.9595 14.1109 12.9819 13.9769 12.9097 13.8573C12.9097 13.2132 12.9097 12.5692 12.9097 11.9252L12.9077 11.9062C12.9891 11.8565 12.97 11.7735 12.9707 11.7015C12.9779 9.86034 12.9838 8.01913 12.9897 6.17792L12.9878 6.18185C12.9943 6.157 13.0015 6.13216 13.0081 6.10796ZM24.3855 23.8165C26.8341 23.8165 29.282 23.806 31.7305 23.8204C32.9981 23.8276 34.105 23.4321 35.0845 22.6422C36.8494 21.2188 37.394 18.5551 36.3003 16.57C35.3279 14.806 33.8202 13.8952 31.7988 13.8762C29.8423 13.8579 27.8858 13.8723 25.9293 13.8723C25.1669 13.8723 24.911 13.6186 24.911 12.851C24.9097 10.8686 24.9222 8.88678 24.9051 6.90434C24.8927 5.39463 24.3061 4.11572 23.1402 3.15915C21.5499 1.85475 19.7475 1.56117 17.8672 2.42097C16.0393 3.25658 14.9711 4.74079 14.9502 6.75853C14.897 11.8552 14.9278 16.9525 14.937 22.0492C14.939 23.1123 15.6843 23.8159 16.7452 23.8159C19.2922 23.8159 21.8385 23.8159 24.3855 23.8159V23.8165Z" fill="#A9448B"/>
<path d="M12.9096 11.9238C12.9096 12.5678 12.9096 13.2118 12.9096 13.8558C12.7678 13.8604 12.6261 13.8683 12.4838 13.8683C10.7346 13.8689 8.98543 13.8643 7.23627 13.8696C5.14069 13.8768 3.41974 15.2976 3.03724 17.3434C2.90208 18.0659 2.97622 18.8002 2.97491 19.5285C2.97163 21.9621 4.83364 23.8131 7.26776 23.8151C9.14814 23.8164 11.0285 23.823 12.9082 23.8269C12.9397 24.0302 12.9312 24.2349 12.9666 24.4402C13.1025 25.2261 14.0617 25.8878 14.9343 25.7884C14.9343 27.727 14.9264 29.665 14.9343 31.6036C14.9422 33.522 16.3803 35.2507 18.2528 35.613C19.1523 35.7869 20.063 35.7516 20.9658 35.6953C23.207 35.5554 24.9031 33.7371 24.9103 31.5049C24.9168 29.599 24.9116 27.693 24.9116 25.7877C25.5696 25.7877 26.2277 25.7877 26.8858 25.7871C26.8838 27.6603 26.8858 29.5342 26.8799 31.4075C26.8753 32.8217 26.4915 34.1176 25.6149 35.2449C24.474 36.7108 22.9656 37.5444 21.1128 37.6536C20.0492 37.7164 18.9713 37.7687 17.9097 37.5542C15.0274 36.9723 12.9706 34.4674 12.968 31.5369C12.9666 29.7291 12.962 27.9206 12.9739 26.1127C12.9758 25.8374 12.8899 25.7668 12.6215 25.7688C10.8291 25.7799 9.03595 25.7786 7.24349 25.7734C4.05091 25.7635 1.42061 23.5215 1.07747 20.3596C0.918035 18.8911 0.83143 17.3735 1.39699 15.9344C2.21449 13.8539 3.71892 12.5554 5.90504 12.0526C6.2121 11.9819 6.53096 11.9296 6.84523 11.9283C8.86733 11.9179 10.8894 11.9231 12.9109 11.9238H12.9096Z" fill="#6D7781"/>
<path d="M12.9897 6.17969C12.9838 8.0209 12.9786 9.8621 12.9707 11.7033C12.9707 11.7752 12.9891 11.8583 12.9077 11.908C12.9084 10.1341 12.9084 8.36089 12.911 6.58703C12.911 6.44776 12.8907 6.3013 12.9891 6.17969H12.9897Z" fill="#333333"/>
<path d="M13.0463 5.78125C13.0417 5.82506 13.0371 5.86886 13.0325 5.91333C12.9643 5.86167 12.9754 5.81852 13.0463 5.78125Z" fill="#333333"/>
<path d="M13.0081 6.10938C13.0016 6.13422 12.9944 6.15907 12.9878 6.18326C12.9944 6.15841 13.0016 6.13357 13.0081 6.10938Z" fill="#333333"/>
</svg>
