<svg width="120" height="120" viewBox="0 0 120 120" fill="none" xmlns="http://www.w3.org/2000/svg">
<path d="M6.85693 56.9691C7.29887 56.0832 7.59442 55.0813 8.20485 54.3334C10.7156 51.2532 15.4195 51.7196 17.4304 55.2442C19.8997 59.5773 22.3055 63.9492 24.7003 68.3237C25.0898 69.0358 25.5787 69.4581 26.3493 69.7203C28.6529 70.4986 30.9289 71.3542 33.39 72.2402C32.9867 70.4489 32.5834 68.8261 32.263 67.1866C31.8349 65.0062 32.8596 62.801 34.7766 61.6197C36.583 60.5074 38.9584 60.6068 40.6931 61.9482C41.2261 62.3594 41.6349 62.9362 42.0796 63.4551C42.2316 63.6345 42.342 63.8636 42.4277 64.0844C43.991 68.1085 46.7145 71.2272 50.0263 73.9072C50.935 74.6413 51.7195 75.5273 52.6144 76.2808C56.9565 79.9378 59.0695 84.6546 59.3816 90.2574C59.4341 91.1792 59.5777 92.0928 59.8982 93.0256C60.0639 91.6015 60.2545 90.1801 60.3898 88.7504C60.8235 84.1302 62.7293 80.2386 66.1268 77.0784C68.5492 74.8263 71.0019 72.6072 73.3884 70.3192C74.043 69.6927 74.5955 68.9199 75.0512 68.1333C75.8577 66.734 76.5372 65.2629 77.2996 63.836C78.6282 61.352 81.3047 60.2673 83.8624 61.1533C86.3953 62.031 87.9034 64.5978 87.293 67.3274C86.4781 70.9816 85.5528 74.6137 84.5944 78.2321C84.3513 79.1456 83.8458 80.004 83.3818 80.843C82.9012 81.7152 82.0615 81.9553 81.2881 81.5441C80.5064 81.1301 80.2164 80.2883 80.6721 79.4216C82.7907 75.3865 83.1387 70.8602 84.2933 66.5573C84.575 65.5113 83.879 64.4763 82.8625 64.101C81.8184 63.7146 80.6942 64.0954 80.1225 65.1415C79.2469 66.7395 78.4818 68.401 77.5813 69.9825C77.1145 70.8022 76.5372 71.5998 75.8605 72.254C73.6287 74.404 71.3886 76.554 69.0408 78.5743C65.4362 81.6793 63.6988 85.593 63.3039 90.2822C62.7652 96.6937 62.0526 103.091 61.4118 109.494C61.398 109.632 61.3787 109.768 61.3593 109.903C61.2185 110.781 60.7793 111.385 59.8291 111.426C58.9811 111.462 58.3569 110.872 58.2464 109.856C57.9149 106.743 57.6304 103.624 57.3128 100.508C56.8957 96.4342 56.5228 92.355 56.0256 88.2923C55.5865 84.707 53.9292 81.7097 51.2693 79.2616C48.7364 76.9266 46.1952 74.6027 43.7065 72.2208C43.0519 71.5943 42.494 70.8243 42.041 70.0349C41.1737 68.5114 40.4279 66.9189 39.6048 65.3733C38.9695 64.1782 37.8729 63.6952 36.7846 64.0761C35.6908 64.4598 35.0832 65.6272 35.3815 66.9437C36.072 69.9935 36.7598 73.0488 37.547 76.0738C37.8287 77.1585 38.3701 78.1824 38.8424 79.2091C39.3203 80.2496 39.1656 81.0804 38.3314 81.5386C37.5138 81.9884 36.6106 81.7014 36.13 80.683C35.5168 79.383 34.992 78.0361 34.5086 76.681C34.3098 76.1262 34.0943 75.7591 33.4922 75.5494C30.4069 74.4757 27.3243 73.3911 24.2805 72.2043C23.612 71.9448 22.9243 71.3597 22.5707 70.7387C19.9743 66.2013 17.4525 61.6197 14.9224 57.0437C14.3395 55.9921 13.5413 55.3187 12.2873 55.418C10.5333 55.5588 9.54173 57.2258 10.2046 58.9895C11.5111 62.4643 12.8701 65.9198 14.2042 69.3836C15.1323 71.7875 16.099 74.1804 16.9774 76.6037C17.6292 78.406 18.6733 79.8632 20.1538 81.0832C25.761 85.7061 31.3211 90.3843 36.9338 95.0018C37.8646 95.7663 38.3038 96.5777 38.2789 97.8114C38.2016 101.598 38.243 105.385 38.2292 109.174C38.2292 109.55 38.2182 109.939 38.1243 110.298C37.9254 111.065 37.3564 111.465 36.5968 111.421C35.7958 111.374 35.2544 110.913 35.1605 110.063C35.1218 109.724 35.1329 109.376 35.1329 109.031C35.1384 105.517 35.1329 102.007 35.166 98.4959C35.1715 97.8501 34.9865 97.425 34.481 97.0055C28.9347 92.4157 23.4187 87.7927 17.8751 83.2001C16.2178 81.8256 15.0301 80.1503 14.2594 78.141C11.8039 71.7737 9.32352 65.4064 6.85693 59.0364V56.9691Z" fill="#A9448B"/>
<path d="M57.9641 29.2593C59.1847 28.4257 60.3578 27.6504 61.4973 26.8307C61.7096 26.6779 61.8688 26.3584 61.9163 26.0916C62.9944 20.2899 68.3627 16.1052 73.9823 16.711C80.1829 17.3806 84.568 22.3155 84.2524 28.4701C84.0373 32.6686 81.9314 35.7974 78.2026 37.7896C77.658 38.0814 77.3954 38.3731 77.3033 39.0067C77.1022 40.4071 76.862 41.8186 76.4681 43.1746C75.2476 47.3703 72.6389 50.4796 68.6057 52.219C63.2346 54.5364 57.6289 55.3561 51.8836 53.8834C46.8114 52.583 43.658 48.7458 43.0938 43.5747C43.0073 42.7856 42.9374 41.9937 42.8564 41.1712C42.2894 40.9906 41.7197 40.8378 41.1694 40.6349C37.1362 39.1484 35.0833 35.4528 35.9911 31.2682C36.3095 29.7983 36.8765 28.4312 38.4601 27.92C39.9991 27.4226 41.1471 28.195 42.1526 29.3787C44.5183 27.5421 47.0181 26.011 49.9899 25.3636C49.4397 23.6159 48.1912 22.9768 46.5656 22.9018C45.5573 22.8545 44.5462 22.8962 43.5351 22.8629C39.5997 22.735 37.382 20.012 38.2032 16.1719C38.516 14.7048 39.1305 13.3016 39.6249 11.8095C37.3122 11.9095 35.1224 12.6264 33.0807 13.774C23.6597 19.0784 21.8135 31.5044 29.2626 39.3179C29.4302 39.4929 29.6117 39.6597 29.757 39.8514C30.2988 40.5683 30.2653 41.2963 29.6397 41.9159C29.0112 42.5383 28.2208 42.6022 27.5756 41.9965C26.7935 41.2657 26.031 40.4766 25.4193 39.6041C20.6963 32.8742 20.065 25.7248 24.0647 18.5699C28.0504 11.4427 34.4744 8.24174 42.6777 8.68076C45.8338 8.85026 48.7386 9.85612 51.4228 11.5066C53.9393 13.0543 56.4782 14.5659 58.964 16.1636C59.7377 16.661 60.2907 16.7082 61.0951 16.1858C63.5698 14.5742 66.1059 13.0543 68.6336 11.5261C80.4762 4.36834 95.4721 10.8286 98.1507 24.3411C99.4327 30.8125 97.796 36.6976 93.1036 41.3796C85.0875 49.3821 76.9067 57.2233 68.6978 65.0313C63.6731 69.8105 56.2911 69.7272 51.2524 64.9312C45.1356 59.11 39.0998 53.2027 33.036 47.3259C32.1171 46.4367 32.011 45.6031 32.6813 44.8779C33.374 44.1277 34.2873 44.1971 35.2314 45.1058C41.1303 50.8019 47.0265 56.5037 52.9198 62.2082C57.3692 66.5151 62.7151 66.5178 67.1617 62.2138C74.9264 54.6976 82.7302 47.2175 90.4558 39.6596C95.9805 34.2552 96.9776 25.9805 93.017 19.5202C88.4336 12.0457 78.6356 9.45878 70.9965 13.7907C67.7622 15.6245 64.6172 17.6168 61.4722 19.6008C60.4499 20.2482 59.6204 20.2454 58.6009 19.5952C55.7297 17.7641 52.8584 15.9191 49.8782 14.2741C48.166 13.3294 46.2444 12.7653 44.4122 12.0401C43.8843 11.8317 43.4513 11.9707 43.2084 12.5041C42.5268 14.0018 41.6219 15.4495 41.2448 17.0222C40.8203 18.7894 41.7532 19.673 43.5938 19.7369C44.6384 19.773 45.6858 19.7286 46.7276 19.7925C50.0737 20.0037 52.0652 21.5263 53.1014 24.694C53.2913 25.2747 53.565 25.597 54.1432 25.8304C55.8777 26.5306 57.0396 27.9116 57.9669 29.2537L57.9641 29.2593ZM43.0156 37.898C44.0658 36.4448 44.9484 35.0916 45.9707 33.8495C46.7639 32.8854 47.6968 32.8298 48.4146 33.4911C49.1715 34.1885 49.0123 35.0305 48.1912 36.0363C47.5041 36.8755 46.7192 37.8063 46.4958 38.8094C46.1662 40.296 46.1187 41.902 46.2723 43.4247C46.6606 47.2898 49.1073 49.9878 52.8751 50.9742C55.6989 51.7133 58.5506 51.5022 61.3856 51.1048C64.2345 50.7075 66.9717 49.9295 69.3514 48.2206C72.7226 45.8004 73.8538 42.2493 74.2002 38.3843C74.3454 36.781 74.7895 35.7835 76.443 35.1222C79.8673 33.7523 81.7219 29.9873 81.018 26.4417C80.2583 22.6295 77.0938 19.912 73.2673 19.7841C69.6 19.6619 66.1673 22.1404 65.2596 25.711C64.3574 29.2648 65.4523 32.1852 68.3543 34.447C69.262 35.1527 69.4324 36.053 68.8626 36.7921C68.2845 37.5451 67.4047 37.6035 66.4634 36.9199C64.6116 35.5778 63.2737 33.8468 62.5 31.6933C62.3213 31.196 62.1565 30.6903 61.9721 30.1512C60.9555 30.7542 60.4276 31.5877 60.2377 32.6131C59.8159 34.9026 60.5421 36.8477 62.1816 38.4565C62.7458 39.0095 63.1508 39.5429 62.7961 40.3626C62.3464 41.3991 61.2739 41.6742 60.2907 40.9434C58.4557 39.5763 57.7155 37.5729 57.115 35.4778C56.791 34.3525 56.4363 33.216 55.9363 32.1629C54.0929 28.2756 51.649 27.4004 47.8309 29.4426C46.102 30.3652 44.5546 31.6461 42.9877 32.8465C41.7755 33.7773 40.8287 33.6273 40.1472 32.2518C39.9516 31.8601 39.7114 31.4905 39.4601 31.057C37.868 33.9662 39.7031 37.2256 43.0128 37.8952L43.0156 37.898Z" fill="#A9448B"/>
<path d="M81.452 103.375C81.452 101.516 81.505 99.6562 81.4325 97.8021C81.3851 96.6268 81.781 95.8212 82.7095 95.0625C88.4558 90.3832 94.1463 85.6405 99.8759 80.942C101.225 79.8356 102.187 78.5086 102.812 76.889C105.076 71.0152 107.395 65.1606 109.62 59.2729C109.888 58.5639 109.902 57.6424 109.698 56.9085C109.434 55.9511 108.572 55.4352 107.54 55.4076C106.428 55.3773 105.636 55.9263 105.101 56.8809C102.979 60.669 100.69 64.3771 98.7829 68.2672C97.4865 70.9103 95.7495 72.6788 92.8164 73.2279C92.5125 73.2858 92.2253 73.432 91.927 73.5148C90.9818 73.7769 90.2095 73.41 89.9112 72.5712C89.6184 71.7435 89.9976 70.9738 90.9316 70.6068C91.835 70.2509 92.7885 70.0081 93.6584 69.5915C94.1742 69.3432 94.7151 68.9321 94.9911 68.4521C97.4781 64.1177 99.8954 59.7447 102.36 55.3966C103.776 52.8969 106.367 51.7851 108.965 52.4969C112.082 53.3522 113.95 56.7347 112.802 59.7613C110.376 66.1621 107.867 72.5326 105.349 78.9003C104.666 80.6275 103.47 82.0152 102.026 83.2016C96.5413 87.707 91.0822 92.2428 85.5812 96.7261C84.8368 97.3331 84.5412 97.9456 84.5608 98.903C84.6305 102.241 84.5998 105.58 84.6082 108.918C84.6082 109.194 84.6165 109.47 84.6026 109.743C84.5468 110.733 83.9725 111.385 83.1249 111.426C82.2466 111.47 81.5189 110.797 81.4994 109.776C81.4604 107.643 81.4883 105.508 81.4883 103.375H81.452Z" fill="#A9448B"/>
</svg>
