<svg width="79" height="96" viewBox="0 0 79 96" fill="none" xmlns="http://www.w3.org/2000/svg">
<g clip-path="url(#clip0_1304_7196)">
<path d="M41.1801 68.586C41.1358 70.8799 42.8456 72.5402 45.2582 72.562C48.3624 72.5893 51.4722 72.573 54.5764 72.573C60.1817 72.573 65.787 72.5511 71.3924 72.5839C74.8784 72.6057 77.9107 75.2109 78.3921 78.5097C78.9178 82.1143 76.8926 85.424 73.4342 86.4507C72.5488 86.7129 71.575 86.7839 70.6398 86.7839C60.3422 86.8057 50.0446 86.8003 39.7469 86.8003H38.596C38.0759 88.6572 37.0024 89.9789 35.0768 90.4377C34.5898 90.5524 34.0752 90.5797 33.5772 90.5851C30.1354 90.596 26.6881 90.5742 23.2464 90.607C22.6986 90.607 22.1065 90.7435 21.6085 90.9674C18.6426 92.3274 15.6933 93.72 12.7495 95.1237C11.5156 95.7135 10.2484 96.0576 8.85956 95.9921C7.47622 95.9265 6.09287 95.9921 4.70952 95.9757C2.34123 95.9484 0.587151 94.3973 0.553951 92.0925C0.482016 87.4939 0.482016 82.8953 0.553951 78.2967C0.592684 76.041 2.3357 74.479 4.63206 74.4299C6.25334 74.3971 7.88016 74.3207 9.49037 74.4572C10.5694 74.55 11.6816 74.8559 12.6776 75.2928C15.6601 76.6145 18.5817 78.0673 21.5476 79.4327C22.0456 79.662 22.6377 79.7986 23.1855 79.804C26.4613 79.8368 29.737 79.8204 33.0128 79.8204C36.1834 79.8204 37.4395 80.6506 38.6347 83.567C38.8837 83.578 39.1549 83.5998 39.4205 83.5998C49.956 83.5998 60.4861 83.6053 71.0216 83.5998C73.5283 83.5998 75.2934 81.9177 75.2491 79.6129C75.2104 77.4556 73.5172 75.7898 71.2817 75.7789C66.8937 75.757 62.5058 75.7734 58.1122 75.7734C54.1282 75.7734 50.1442 75.7734 46.1601 75.7734C41.1524 75.7734 38.5462 73.5615 37.7992 68.5915H36.6261C27.5126 68.5915 18.3936 68.5915 9.2801 68.5915C3.99018 68.5915 0.531817 65.2053 0.526284 59.9677C0.515217 42.8731 0.515217 25.7785 0.526284 8.68385C0.509683 3.37523 3.95145 0 9.31884 0C29.4438 0 49.5632 0 69.6881 0C75.0499 0 78.4862 3.37523 78.4917 8.68385C78.5028 25.7457 78.5028 42.8076 78.4917 59.8694C78.4917 65.2381 75.0665 68.586 69.6272 68.586C60.5469 68.586 51.4611 68.586 42.3808 68.586H41.1856H41.1801ZM75.2491 52.1796V51.0873C75.2491 36.991 75.2491 22.8948 75.2491 8.79854C75.2491 5.10654 73.3014 3.20046 69.5719 3.20046C49.5134 3.20046 29.4604 3.20046 9.40184 3.20046C5.72214 3.20046 3.75225 5.11746 3.74671 8.72754C3.74671 22.8566 3.74671 36.9856 3.74671 51.12C3.74671 51.4696 3.78545 51.8191 3.80205 52.1905H75.2491V52.1796ZM3.74671 55.4893C3.74671 57.0403 3.74118 58.5313 3.74671 60.0169C3.76885 63.4631 5.7332 65.3856 9.22477 65.3856C21.3097 65.3856 33.3891 65.3856 45.474 65.3856C53.6745 65.3856 61.8749 65.3856 70.081 65.3856C72.5212 65.3856 74.6792 63.9983 75.0112 61.7646C75.31 59.7274 75.0721 57.6138 75.0721 55.4838H3.74671V55.4893ZM11.9029 91.9232C12.3401 91.7375 12.6444 91.6228 12.9432 91.4808C15.5273 90.2629 18.1059 89.0177 20.7065 87.8434C21.2986 87.5758 21.9903 87.4229 22.6377 87.4174C26.251 87.3792 29.8643 87.4174 33.4776 87.3792C33.9811 87.3792 34.5511 87.2153 34.9606 86.9368C35.4862 86.5818 35.5969 84.643 35.2428 83.8893C34.861 83.081 34.1305 83.0264 33.3614 83.0264C29.7813 83.0318 26.2012 83.0537 22.6266 83.01C21.946 82.999 21.2156 82.8352 20.6014 82.5512C17.4529 81.1093 14.3376 79.5965 11.1947 78.1437C10.6579 77.8925 10.0492 77.685 9.46824 77.6577C7.95209 77.5921 6.43041 77.6413 4.90873 77.6303C4.16172 77.6249 3.75778 77.9526 3.75778 78.7008C3.75778 83.0646 3.73565 87.4338 3.79652 91.7976C3.79652 92.1307 4.33325 92.7206 4.65972 92.7479C5.95454 92.8571 7.26595 92.7916 8.67143 92.7916V91.601C8.67143 88.4333 8.67143 85.271 8.67143 82.1034C8.67143 81.8357 8.6659 81.5681 8.67143 81.306C8.71016 80.1863 9.30777 79.531 10.2872 79.5364C11.2555 79.5419 11.8863 80.2027 11.9029 81.3278C11.9306 83.6599 11.914 85.992 11.914 88.3241C11.914 89.4819 11.914 90.6397 11.914 91.9287L11.9029 91.9232Z" fill="#A9448B"/>
<path d="M36.6962 44.9946C29.105 44.9403 19.7641 41.8695 11.5189 35.69C10.2891 34.7677 10.1829 34.0244 11.1444 32.8471C16.5443 26.2335 21.9498 19.6199 27.3553 13.0118C28.3671 11.7748 29.0491 11.6988 30.3851 12.6374C35.9751 16.5546 42.9849 16.56 48.6028 12.6537C49.9892 11.6934 50.6544 11.7748 51.7053 13.0606C57.0661 19.6199 62.4269 26.1793 67.7877 32.744C68.833 34.0244 68.738 34.7568 67.4355 35.7388C59.3356 41.8261 49.7935 44.9946 36.7074 45L36.6962 44.9946ZM14.4928 33.8508C30.4913 45.4449 52.0071 43.4538 64.4505 33.7803C59.5424 27.7797 54.64 21.7792 49.7544 15.8113C42.8396 19.7447 36.0366 19.7176 29.228 15.8113C24.3032 21.8335 19.4175 27.8123 14.4872 33.8454L14.4928 33.8508Z" fill="#A9448B"/>
<path d="M28.9502 61.9983C27.2708 61.9983 26.5226 61.5582 26.5004 60.5398C26.4783 59.5061 27.2985 59.0046 28.9945 59.0046C29.2994 59.0046 29.6042 58.9892 29.9035 59.0148C30.8457 59.1018 31.5163 59.7466 31.4997 60.5347C31.4831 61.3433 30.8124 61.942 29.8591 61.9932C29.5543 62.0085 29.255 61.9932 28.9502 61.9932V61.9983Z" fill="#A9448B"/>
<path d="M49.9813 62C48.2653 62 47.4626 61.5093 47.5013 60.4716C47.5346 59.4799 48.3372 59.0046 49.9702 59.0046C50.2747 59.0046 50.5791 58.9892 50.8781 59.0148C51.8247 59.0915 52.5 59.7202 52.5 60.5074C52.5 61.3457 51.808 61.954 50.7895 61.9949C50.5182 62.0051 50.2525 61.9949 49.9813 61.9949V62Z" fill="#A9448B"/>
<path d="M39.5072 61.9932C39.261 61.9932 39.0148 62.0085 38.7731 61.9932C38.0256 61.9372 37.5332 61.3923 37.5019 60.5978C37.4661 59.7626 37.9405 59.121 38.7149 59.0344C39.1715 58.9834 39.6415 58.9987 40.1025 59.0191C40.9888 59.0649 41.5259 59.671 41.499 60.5724C41.4767 61.4228 40.944 61.9576 40.0801 61.9932C39.8921 61.9983 39.6997 61.9932 39.5072 61.9932Z" fill="#A9448B"/>
</g>
<defs>
<clipPath id="clip0_1304_7196">
<rect width="78" height="96" fill="white" transform="translate(0.5)"/>
</clipPath>
</defs>
</svg>
