<svg width="83" height="103" viewBox="0 0 83 103" fill="none" xmlns="http://www.w3.org/2000/svg">
<g clip-path="url(#clip0_1304_6782)">
<path d="M44.6652 17.4731C50.7144 17.4731 56.7659 17.4731 62.8151 17.4731C63.0765 17.4731 63.3403 17.4564 63.5994 17.485C64.3006 17.5637 64.8116 18.1263 64.814 18.8057C64.8164 19.4828 64.3149 20.0525 63.6137 20.1431C63.3808 20.1741 63.1431 20.1574 62.9078 20.1574C50.7548 20.1574 38.6018 20.1574 26.4488 20.1574C26.1873 20.1574 25.9211 20.1741 25.6644 20.1264C24.9989 20.0049 24.571 19.4542 24.5853 18.7795C24.5996 18.1072 25.0536 17.5803 25.7286 17.4898C25.9853 17.454 26.2515 17.4707 26.513 17.4707C32.5621 17.4707 38.6137 17.4707 44.6628 17.4707L44.6652 17.4731Z" fill="#A9448B"/>
<path d="M44.6675 28.2296C38.6183 28.2296 32.5668 28.2296 26.5176 28.2296C26.2562 28.2296 25.99 28.2487 25.7333 28.2105C25.0915 28.1149 24.6874 27.742 24.6019 27.0847C24.5163 26.4035 24.7849 25.8873 25.4409 25.6554C25.7285 25.555 26.0565 25.5407 26.3655 25.5407C38.5708 25.5359 50.7761 25.5359 62.979 25.5407C63.2642 25.5407 63.5637 25.5407 63.8323 25.6172C64.4954 25.8084 64.8163 26.2936 64.7997 26.9772C64.783 27.6369 64.2768 28.1507 63.6017 28.2201C63.3427 28.2463 63.0788 28.2344 62.8174 28.2344C56.7682 28.2344 50.7167 28.2344 44.6675 28.2344V28.2296Z" fill="#A9448B"/>
<path d="M49.3949 36.2993C44.8646 36.2993 40.3343 36.2993 35.8039 36.2945C35.4664 36.2945 35.0243 36.3589 34.8151 36.1777C34.4539 35.863 34.0831 35.4101 33.9951 34.9619C33.8834 34.3921 34.2613 33.8962 34.8603 33.7198C35.1788 33.6245 35.5306 33.6102 35.8657 33.6102C44.8741 33.6054 53.8825 33.6054 62.8909 33.6054C63.1 33.6054 63.3116 33.5959 63.5184 33.6197C64.3289 33.7151 64.8494 34.2896 64.809 35.031C64.771 35.7438 64.2481 36.2731 63.4566 36.2826C61.624 36.3088 59.7914 36.2969 57.9565 36.2969C55.1018 36.2969 52.2472 36.2969 49.3926 36.2969L49.3949 36.2993Z" fill="#A9448B"/>
<path d="M27.8531 36.282C27.1995 36.282 26.5434 36.3082 25.8898 36.2749C25.0912 36.2345 24.6015 35.7281 24.5849 34.991C24.5683 34.2611 25.0413 33.6643 25.8185 33.6334C27.2042 33.5787 28.5923 33.5787 29.978 33.6287C30.7933 33.6572 31.2853 34.2754 31.2449 35.0362C31.2069 35.759 30.703 36.2416 29.8948 36.2749C29.2151 36.3034 28.5329 36.2797 27.8531 36.2797V36.282Z" fill="#A9448B"/>
<path d="M9.83389 39.5284C9.83389 28.2474 9.83389 16.9664 9.83389 5.68775C9.83389 4.08333 10.6159 3.02246 11.9969 2.74353C12.2749 2.68632 12.5697 2.6887 12.8573 2.6887C28.7325 2.68632 44.6053 2.68632 60.4805 2.6887C62.2465 2.6887 63.3161 3.62084 63.4539 5.37307H62.4747C48.6174 5.37307 34.7602 5.37307 20.903 5.37307C17.9866 5.37307 15.8236 7.05854 15.2912 9.76675C15.1866 10.3008 15.1961 10.8634 15.1961 11.4141C15.1961 20.7855 15.1961 30.157 15.1961 39.5284H17.8725C17.8725 30.1069 17.8725 20.6854 17.8725 11.2639C17.8725 9.05394 18.8755 8.0622 21.1051 8.0622C36.8495 8.0622 52.5963 8.0622 68.3408 8.0622C70.5156 8.0622 71.5163 9.06109 71.5163 11.2353C71.5163 20.6663 71.5163 30.0974 71.5163 39.5284H74.1951C74.1951 30.0759 74.1951 20.6234 74.1951 11.1709C74.1951 10.6488 74.1832 10.1124 74.0715 9.60702C73.5176 7.12291 71.4355 5.43743 68.8804 5.38022C67.9771 5.35876 67.0739 5.37784 66.185 5.37784C66.021 3.1798 65.0892 1.59922 63.2495 0.612253C62.7742 0.357167 62.2441 0.202208 61.7402 0.00195312H11.5928C11.5286 0.0448648 11.4692 0.104464 11.4003 0.123536C8.5884 0.926939 7.15514 2.77929 7.15514 5.69014C7.15277 16.9688 7.15039 28.2498 7.15039 39.5284H9.83627H9.83389Z" fill="#A9448B"/>
<path d="M82.4931 33.3971C82.4931 32.7152 82.4741 32.0191 82.3339 31.3588C81.5471 27.6159 78.4619 25.108 74.5733 25.0293V27.7589C76.0185 27.8257 77.3448 28.2357 78.2646 29.4015C78.9183 30.2287 79.5886 31.2992 79.648 32.2957C79.8286 35.2756 79.7122 38.2747 79.7122 41.4621C77.4921 39.45 74.8847 39.5191 72.2583 39.5215C51.4701 39.5406 30.6819 39.543 9.89366 39.5167C7.53105 39.5144 5.27776 39.7098 3.24078 41.5002V29.3014C3.24078 27.07 3.23127 24.8409 3.24315 22.6095C3.25741 19.8393 5.02344 17.7462 7.60473 17.3219V14.4062C7.5667 14.411 7.52867 14.4158 7.49064 14.4206C3.26454 15.1334 0.512117 18.4113 0.507364 22.7812C0.495479 32.7462 0.50261 42.7113 0.50261 52.6763C0.50261 62.6104 0.497856 72.5468 0.50974 82.4809C0.50974 83.2199 0.524002 83.9804 0.680876 84.6956C1.46287 88.2358 4.38881 90.4982 8.20133 90.5078C14.4311 90.5268 20.6609 90.5125 26.8884 90.5125C27.3305 90.5125 27.7036 90.4863 27.9889 91.0108C31.0479 96.6108 35.6971 100.416 41.5014 102.871C41.8865 103.033 42.4593 103.048 42.8372 102.883C48.4562 100.473 52.9247 96.7014 56.0218 91.3875C56.4354 90.677 56.868 90.4958 57.6214 90.4982C63.2879 90.5268 68.952 90.5197 74.6185 90.5102C79.3913 90.503 82.4907 87.4181 82.4931 82.6549C82.5002 66.2364 82.4979 49.8156 82.4883 33.3971H82.4931ZM55.5535 85.4847C53.3882 92.2958 48.7818 96.9302 42.4641 99.9865C42.2406 100.094 41.8698 100.094 41.6464 99.9841C34.6917 96.5559 29.7359 91.4327 28.0792 83.6085C27.7916 82.2544 27.7345 80.8359 27.7013 79.4437C27.6442 76.9477 27.7203 74.4469 27.6656 71.9485C27.6466 71.0855 27.8225 70.7636 28.7708 70.7708C29.9141 70.7779 31.0836 70.6253 32.1983 70.3583C34.5657 69.7933 36.4458 68.4655 37.8482 66.4462C38.0549 66.1482 38.5351 65.8884 38.894 65.8788C40.8193 65.824 42.7493 65.8288 44.6769 65.8764C45.0168 65.886 45.4803 66.1125 45.6657 66.389C47.5292 69.183 50.2388 70.4346 53.4595 70.7398C54.396 70.828 55.3468 70.7541 56.4781 70.7541C56.1787 75.8081 57.0676 80.7263 55.5535 85.4895V85.4847ZM74.7682 87.7161C69.4012 87.7209 64.0319 87.7161 58.6649 87.7161H57.8425C58.2275 85.9424 58.7338 84.2284 58.9454 82.4761C59.1664 80.6548 59.1331 78.8 59.1545 76.9596C59.1854 74.5518 59.1688 72.1416 59.1593 69.7337C59.1545 68.4965 58.7267 68.1341 57.5026 68.0578C55.5892 67.9386 53.6497 67.91 51.7791 67.5476C49.7896 67.1638 48.3825 65.8669 47.5221 63.9621C47.339 63.5568 46.6878 63.1301 46.2409 63.1182C43.3055 63.0443 40.3676 63.049 37.4346 63.1158C36.9996 63.1253 36.3531 63.4901 36.1843 63.8644C34.8604 66.78 32.4312 67.8432 29.472 68.0554C28.5284 68.1222 27.5753 68.0554 26.6269 68.0721C25.5549 68.0912 25.0986 68.5251 25.0962 69.5883C25.0938 73.4551 24.9821 77.3267 25.177 81.184C25.2863 83.3487 25.9115 85.4871 26.3203 87.7161H23.9529C18.7333 87.7161 13.5137 87.7209 8.29402 87.7161C5.30866 87.7114 3.40716 85.8065 3.40716 82.8123C3.4024 71.2428 3.40478 59.6733 3.40716 48.1039C3.40716 44.5732 5.5202 42.4467 9.05463 42.4467C30.7342 42.4419 52.4161 42.4467 74.0956 42.4467C74.155 42.4467 74.2144 42.4467 74.2738 42.4467C77.6086 42.4824 79.7621 44.6542 79.7645 48.0109C79.7692 59.5803 79.7692 71.1498 79.7645 82.7193C79.7645 85.8232 77.8724 87.7161 74.7754 87.7185L74.7682 87.7161Z" fill="#A9448B"/>
<path d="M39.3049 85.9584C41.7649 83.4957 44.1323 81.126 46.4973 78.7564C47.063 78.189 47.6192 77.6121 48.1968 77.0566C48.9051 76.3772 49.6372 76.3462 50.2314 76.9422C50.8066 77.5191 50.7899 78.3082 50.1173 78.99C48.1397 80.9973 46.1408 82.9856 44.1513 84.9833C42.9581 86.1801 41.7673 87.384 40.567 88.5736C39.6614 89.47 39.0196 89.4795 38.1354 88.6046C36.745 87.2267 35.3616 85.8392 33.9878 84.4446C33.2414 83.6864 33.1987 82.9617 33.8214 82.3419C34.437 81.7268 35.1667 81.7769 35.9202 82.5278C37.0326 83.6364 38.1259 84.764 39.3025 85.9584H39.3049Z" fill="#A9448B"/>
</g>
<defs>
<clipPath id="clip0_1304_6782">
<rect width="82" height="103" fill="white" transform="translate(0.5)"/>
</clipPath>
</defs>
</svg>
