<svg width="81" height="96" viewBox="0 0 81 96" fill="none" xmlns="http://www.w3.org/2000/svg">
<path d="M64.3242 3.42773C64.8935 3.65016 65.4925 3.821 66.0322 4.10145C68.1121 5.18777 69.1686 6.93491 69.3529 9.36221C70.3566 9.36221 71.3801 9.34287 72.4004 9.36543C75.2899 9.4299 77.643 11.2899 78.2683 14.0331C78.3966 14.5907 78.4098 15.1839 78.4098 15.7609C78.4164 39.228 78.4164 62.6984 78.4131 86.1655C78.4131 90.1207 75.9053 92.5706 71.8771 92.5706C54.0133 92.5706 36.1529 92.5706 18.2891 92.5706C14.4452 92.5706 12.0888 90.5043 11.6347 86.6361C10.7724 86.6361 9.89371 86.6361 9.015 86.6361C5.1612 86.6264 2.5909 84.1476 2.5909 80.3793C2.58432 56.8219 2.58432 33.2677 2.58761 9.71035C2.5909 6.49651 4.21009 4.44959 7.38923 3.56312C7.46822 3.54056 7.53404 3.47286 7.60644 3.42773C26.5134 3.42773 45.4172 3.42773 64.3242 3.42773ZM75.3787 51.0002C75.3787 39.2796 75.3787 27.5557 75.3787 15.835C75.3787 13.4335 74.2466 12.3311 71.7849 12.3311C53.9804 12.3311 36.1726 12.3311 18.3681 12.3311C15.8472 12.3311 14.7118 13.4271 14.7118 15.8672C14.7118 39.2538 14.7118 62.6371 14.7118 86.0237C14.7118 88.5348 15.8176 89.6082 18.401 89.6082C36.1167 89.6082 53.8356 89.5824 71.5513 89.6404C73.8254 89.6469 75.4281 88.5251 75.4117 85.9044C75.336 74.2707 75.3787 62.6339 75.3787 51.0002ZM66.2593 9.36221C66.1046 7.42811 64.8935 6.39658 62.8958 6.39658C44.9432 6.39658 26.9939 6.39658 9.04133 6.39658C8.71552 6.39658 8.38313 6.39658 8.07048 6.45783C6.50723 6.76729 5.62524 7.93742 5.62195 9.71035C5.62195 33.2677 5.62195 56.8219 5.62195 80.3793C5.62195 80.5243 5.62195 80.6694 5.62853 80.8145C5.69764 82.1716 6.56318 83.3417 7.93225 83.5287C9.13677 83.6931 10.3841 83.5641 11.684 83.5641V82.4391C11.684 60.3033 11.684 38.1707 11.6873 16.0349C11.6873 15.4289 11.6742 14.8067 11.7959 14.2168C12.3982 11.2254 14.8434 9.36543 18.141 9.36543C33.813 9.36221 49.4816 9.36543 65.1535 9.36543C65.5056 9.36543 65.8578 9.36543 66.2593 9.36543V9.36221Z" fill="#A9448B"/>
<path d="M44.2456 23.0044C50.9479 23.0044 57.6534 23.0044 64.3556 23.0044C64.6459 23.0044 64.9394 22.9897 65.2265 23.0161C66.0038 23.0952 66.5682 23.6605 66.5714 24.3401C66.5714 25.0197 66.0167 25.5909 65.2426 25.6817C64.9846 25.711 64.7201 25.6963 64.4588 25.6963C50.993 25.6963 37.5272 25.6963 24.0646 25.6963C23.7743 25.6963 23.4776 25.7139 23.197 25.667C22.4584 25.5469 21.9843 24.9933 22.0004 24.3167C22.0165 23.643 22.5197 23.1157 23.268 23.022C23.555 22.9868 23.8485 23.0044 24.1388 23.0044C30.8411 23.0044 37.5466 23.0044 44.2488 23.0044H44.2456Z" fill="#A9448B"/>
<path d="M44.2571 34.3937C37.5527 34.3937 30.845 34.3937 24.1406 34.3937C23.8502 34.3937 23.5566 34.4113 23.2695 34.3732C22.5597 34.2766 22.108 33.9049 22.0176 33.2462C21.9209 32.5642 22.2209 32.049 22.9501 31.8178C23.2663 31.7153 23.6308 31.7036 23.9728 31.7036C37.501 31.6978 51.026 31.6978 64.5542 31.7036C64.8704 31.7036 65.2027 31.7036 65.4995 31.7797C66.2351 31.97 66.59 32.4559 66.5707 33.1379C66.5513 33.7995 65.9899 34.3117 65.2414 34.382C64.9543 34.4083 64.6607 34.3966 64.3703 34.3966C57.6659 34.3966 50.9582 34.3966 44.2538 34.3966L44.2571 34.3937Z" fill="#A9448B"/>
<path d="M49.8566 43.0922C44.9464 43.0922 40.0331 43.0922 35.123 43.0893C34.757 43.0893 34.2773 43.1536 34.0501 42.9725C33.6588 42.6571 33.258 42.2044 33.1634 41.7575C33.0435 41.188 33.4537 40.6915 34.1006 40.5162C34.4477 40.4228 34.8264 40.4052 35.1924 40.4052C44.9591 40.3994 54.7225 40.3994 64.4892 40.4023C64.7164 40.4023 64.9467 40.3935 65.1708 40.4169C66.0512 40.5133 66.6129 41.0857 66.5687 41.8276C66.5277 42.5402 65.9597 43.0689 65.1045 43.0806C63.1165 43.1068 61.1316 43.0952 59.1436 43.0952C56.0479 43.0952 52.9554 43.0952 49.8597 43.0952L49.8566 43.0922Z" fill="#A9448B"/>
<path d="M25.7819 43.0887C25.0236 43.0887 24.2653 43.1149 23.5104 43.0828C22.587 43.0421 22.0208 42.5353 22.0005 41.7984C21.9803 41.0674 22.5263 40.4732 23.4295 40.4412C25.0337 40.3888 26.6413 40.3859 28.2455 40.4383C29.1892 40.4674 29.7587 41.0849 29.7116 41.845C29.6678 42.5673 29.0813 43.0508 28.1478 43.0857C27.3625 43.1149 26.5705 43.0916 25.7853 43.0916L25.7819 43.0887Z" fill="#A9448B"/>
<path d="M44.3253 49.1012C50.9707 49.1012 57.6162 49.1012 64.2616 49.1012C64.5519 49.1012 64.8423 49.0925 65.1326 49.1158C65.9939 49.1859 66.5649 49.7147 66.5714 50.4275C66.5778 51.1403 66.023 51.6836 65.1649 51.7771C64.8778 51.8092 64.5842 51.7975 64.2939 51.7975C50.9449 51.7975 37.596 51.7975 24.247 51.7975C23.8438 51.7975 23.4244 51.7975 23.0405 51.7041C22.3018 51.52 21.9534 51.0292 22.005 50.3398C22.0534 49.6855 22.4631 49.2707 23.176 49.1509C23.5147 49.0925 23.8696 49.1041 24.218 49.1041C30.9215 49.1041 37.625 49.1041 44.3285 49.1041L44.3253 49.1012Z" fill="#A9448B"/>
<path d="M44.2651 57.8096C50.9693 57.8096 57.6735 57.8096 64.381 57.8096C64.7004 57.8096 65.023 57.7921 65.3359 57.836C66.0554 57.9354 66.4781 58.3476 66.5587 58.9908C66.6394 59.631 66.3361 60.128 65.6586 60.3648C65.3714 60.4642 65.0359 60.4964 64.723 60.4964C51.0822 60.5022 37.4383 60.5022 23.7976 60.4964C22.6684 60.4964 22.0231 60.0052 22.0005 59.1779C21.9812 58.4645 22.4941 57.909 23.2814 57.8243C23.5975 57.7892 23.9202 57.8038 24.2396 57.8038C30.9147 57.8038 37.5899 57.8038 44.2683 57.8038L44.2651 57.8096Z" fill="#A9448B"/>
<path d="M36.1835 66.5041C40.1688 66.5041 44.1542 66.5041 48.1427 66.5041C48.4046 66.5041 48.6696 66.4894 48.9282 66.5158C49.7007 66.5948 50.2825 67.1715 50.2857 67.8419C50.2857 68.5094 49.7136 69.092 48.9443 69.1828C48.7148 69.2091 48.4789 69.1974 48.2462 69.1974C40.1591 69.1974 32.0688 69.1974 23.9818 69.1974C23.72 69.1974 23.4517 69.212 23.1996 69.1681C22.4594 69.0452 21.9842 68.4919 22.0004 67.8156C22.0166 67.1423 22.5208 66.6153 23.2707 66.5216C23.5292 66.4894 23.7943 66.5041 24.0561 66.5041C28.0996 66.5041 32.1432 66.5041 36.1899 66.5041H36.1835Z" fill="#A9448B"/>
<path d="M60.1875 69.0677C58.5978 69.0677 57.005 69.0733 55.4154 69.0677C54.3411 69.0621 53.7201 68.5874 53.7139 67.7943C53.7077 66.9929 54.3256 66.5042 55.3905 66.5042C58.545 66.4986 61.6995 66.4986 64.854 66.5042C65.9127 66.5042 66.5648 66.9957 66.571 67.772C66.5772 68.5511 65.9252 69.0621 64.8788 69.0677C63.3171 69.0761 61.7523 69.0677 60.1906 69.0677H60.1875Z" fill="#A9448B"/>
<path d="M32.2692 77.8923C29.4404 77.8923 26.6115 77.8952 23.7827 77.8923C22.6331 77.8923 22.023 77.4361 22.0006 76.594C21.9781 75.7226 22.6235 75.2051 23.7859 75.2051C29.5014 75.1992 35.2137 75.2051 40.9292 75.1992C41.6163 75.1992 42.2778 75.3483 42.4865 75.9624C42.6278 76.3805 42.6021 77.0121 42.3388 77.3308C42.0691 77.6554 41.4173 77.8601 40.926 77.8689C38.0393 77.9186 35.1527 77.8923 32.2692 77.8923Z" fill="#A9448B"/>
</svg>
