<svg width="64" height="96" viewBox="0 0 64 96" fill="none" xmlns="http://www.w3.org/2000/svg">
<g clip-path="url(#clip0_1304_7813)">
<path d="M54.5007 0C59.1634 1.025 61.668 4.1525 62.85 8.545C63.0181 9.1725 63.1285 9.835 63.1411 10.485C63.2841 18.2625 63.505 26.04 63.4974 33.8175C63.4924 39.6 62.9729 45.3575 61.6579 51.015C61.3066 52.5275 60.8348 52.92 59.2939 52.715C56.3126 52.3175 53.3413 51.8675 50.3649 51.4425C50.1491 51.4125 49.9308 51.3975 49.469 51.3475C49.6622 53.0475 49.7074 54.705 50.0713 56.2875C50.4979 58.1325 51.0124 60 51.823 61.7025C55.4342 69.305 57.8359 77.2975 59.7557 85.4525C60.363 88.0325 60.8398 90.645 61.412 93.235C61.6604 94.355 61.6253 95.3375 60.5236 96.0025H11.2057C10.365 95.4425 10.1618 94.665 10.2069 93.6775C10.3801 89.805 11.1832 86.0725 12.5634 82.455C12.6613 82.2 12.7466 81.9375 12.7592 81.905C10.8092 80.135 8.82919 78.5825 7.14527 76.7575C3.67455 72.9975 1.77481 68.4425 1.01191 63.42C0.233941 58.3 0.191279 53.215 1.96052 48.2475C3.74231 43.2425 6.80397 39.1975 11.0803 36.035C11.5671 35.675 11.9912 35.115 12.2296 34.555C12.97 32.81 14.1319 31.49 15.8158 30.6175C16.1195 30.46 16.4306 30.3225 16.5637 30.26C15.6778 28.7725 14.6187 27.3925 13.9788 25.84C11.7804 20.53 14.0466 15.21 19.3041 12.88C23.8514 10.865 27.1138 7.4 29.7589 3.33C30.7477 1.81 31.8117 0.5225 33.6111 0.0025H54.5057L54.5007 0ZM13.4794 92.76H57.994C57.9513 92.4675 57.9312 92.2175 57.8811 91.975C56.1846 83.71 54.1293 75.5475 50.9371 67.71C50.0537 65.5425 48.9972 63.445 48.1414 61.27C46.8114 57.89 46.2593 54.3525 46.3295 50.7C46.051 50.61 45.8226 50.5125 45.5842 50.46C39.1321 49.0775 32.8883 47.0425 26.8629 44.3725C24.1224 43.16 21.3469 42.005 18.9352 40.1425C17.6026 39.1125 15.9764 38.6475 14.3 38.4775C13.8433 38.4325 13.2636 38.515 12.9047 38.77C9.86312 40.935 7.50163 43.6875 5.92311 47.08C3.81508 51.615 3.44116 56.3975 3.95311 61.2825C4.44247 65.94 5.96076 70.215 8.92957 73.92C12.6864 78.6075 17.7507 81.085 23.4524 82.495C27.4526 83.4825 31.5031 83.66 35.5962 83.245C36.6979 83.1325 37.4332 83.7825 37.4758 84.7425C37.516 85.6375 36.856 86.3125 35.812 86.42C29.1315 87.1 22.682 86.2225 16.5009 83.55C16.255 83.445 16.0015 83.3575 15.7054 83.2475C14.4707 86.32 13.7429 89.43 13.4794 92.76ZM58.9351 49.48C59.3416 45.7275 59.8661 42.085 60.107 38.425C60.7194 29.185 60.1873 19.9425 59.9263 10.7025C59.8009 6.2825 56.5886 3.1775 52.4654 3.1775C51.8154 3.1775 51.557 3.345 51.4014 4C50.3699 8.32 49.6723 12.6875 49.3385 17.1175C48.8667 23.405 49.1126 29.66 50.1616 35.8775C50.2093 36.1675 50.513 36.495 50.7865 36.6525C51.8656 37.2775 53.01 37.7975 54.074 38.445C55.1456 39.0975 55.4091 40.0475 54.8696 40.87C54.315 41.7175 53.4416 41.695 52.3123 41.12C50.6234 40.2625 48.9169 39.28 47.0975 38.8675C44.3319 38.24 41.4761 37.9575 38.6428 37.715C35.5008 37.445 32.4467 36.9525 29.5055 35.7525C27.1339 34.785 24.7097 33.9375 22.2804 33.125C20.6542 32.58 18.9979 32.6825 17.4194 33.3975C16.5511 33.79 15.8585 34.3825 15.4268 35.35C17.698 35.8175 19.6855 36.6725 21.4874 37.9725C22.3181 38.5725 23.2014 39.1225 24.1149 39.585C29.8844 42.5125 35.9575 44.6475 42.2038 46.31C47.5944 47.745 53.0577 48.7975 58.9326 49.48H58.9351ZM45.6068 3.2325C45.1751 4.935 44.869 6.6275 44.3144 8.2375C42.4523 13.645 38.8862 16.19 33.1794 15.92C30.035 15.7725 26.9156 15.15 23.7837 14.755C23.4298 14.71 23.0182 14.645 22.7146 14.775C21.7082 15.2025 20.722 15.6825 19.7583 16.2C17.7281 17.29 16.5913 18.9925 16.4256 21.29C16.1446 25.2075 18.9001 28.83 22.8903 29.995C24.9882 30.6075 27.0335 31.3975 29.1014 32.105C30.9309 32.73 32.7277 33.5125 34.6049 33.935C36.4243 34.3425 38.3291 34.3725 40.1937 34.58C42.3594 34.8225 44.5252 35.08 46.7712 35.34C45.2479 24.55 45.7624 13.865 48.3071 3.2325H45.6068ZM42.1712 3.1925C39.7419 3.1925 37.4281 3.225 35.1143 3.1775C34.0904 3.1575 33.4103 3.52 32.8808 4.395C31.3048 7.0025 29.3649 9.3275 27.149 11.425C26.9758 11.5875 26.8252 11.775 26.642 11.975C26.775 12.0525 26.8478 12.13 26.9281 12.1375C29.5155 12.3525 32.1003 12.6475 34.6927 12.74C36.6828 12.81 38.3266 11.885 39.5763 10.345C41.2326 8.305 41.8675 5.885 42.1737 3.1925H42.1712Z" fill="#A9448B"/>
<path d="M21.4273 53.5629C23.578 51.6054 25.9846 50.7229 28.8154 51.4604C33.1971 52.6004 35.4407 57.3604 33.704 61.7829C32.9662 63.6579 31.7165 65.1879 30.2408 66.5054C27.7238 68.7554 25.1364 70.9304 22.5666 73.1229C21.8589 73.7279 21.0659 73.7904 20.3456 73.1679C17.5048 70.7179 14.6163 68.3129 11.8784 65.7554C9.91591 63.9229 8.58334 61.6704 8.5733 58.8529C8.56326 55.6804 9.93348 53.2979 12.8094 51.9279C15.6302 50.5829 18.2903 51.1079 20.7271 52.9754C20.9479 53.1454 21.1537 53.3354 21.4273 53.5654V53.5629ZM21.3821 70.0979C24.0372 67.6979 26.5367 65.5629 28.8756 63.2629C29.7339 62.4179 30.3989 61.2554 30.8105 60.1154C31.3902 58.5079 31.1368 56.8829 29.8368 55.6079C28.7251 54.5179 27.3799 54.1404 25.8591 54.5854C24.5341 54.9729 23.5754 55.8104 22.8401 56.9729C22.0948 58.1504 20.8049 58.1329 20.0018 56.9954C19.7509 56.6379 19.5275 56.2479 19.2163 55.9479C17.9791 54.7454 16.5311 54.0804 14.7819 54.5729C13.1583 55.0304 12.1595 56.1554 11.8508 57.7929C11.502 59.6479 12.1017 61.3354 13.3891 62.6129C15.9363 65.1404 18.6216 67.5279 21.3821 70.0954V70.0979Z" fill="#A9448B"/>
</g>
<defs>
<clipPath id="clip0_1304_7813">
<rect width="63" height="96" fill="white" transform="translate(0.5)"/>
</clipPath>
</defs>
</svg>
