<svg width="66" height="101" viewBox="0 0 66 101" fill="none" xmlns="http://www.w3.org/2000/svg">
<path d="M15.7637 32.1595C15.3649 32.342 15.0532 32.5059 14.7283 32.6329C10.8588 34.1534 7.23756 33.6774 4.09968 30.9589C0.866717 28.1584 -0.232069 24.5144 0.977651 20.4049C2.14775 16.4329 4.91849 14.0132 9.01516 13.2595C9.84453 13.1062 10.1166 12.7994 10.2407 11.977C11.3316 4.67825 16.7806 0.010768 24.1472 0.00547908C27.0157 0.00547908 29.8815 -0.00245431 32.75 0.00547908C40.9882 0.0345682 47.0421 6.89695 46.0648 15.0948C45.9116 16.3721 45.7452 17.6467 45.6132 18.924C45.4415 20.5662 45.8614 22.0603 46.8017 23.4116C47.1583 23.9247 47.5202 24.4377 47.8503 24.9692C48.8672 26.6061 48.3495 28.4388 46.5482 29.1104C45.5815 29.4727 45.3279 30.0281 45.2064 30.9721C44.7732 34.3306 43.2624 37.1761 40.7875 39.482C39.0574 41.0952 36.9946 41.4945 34.723 40.9629C34.2872 40.8624 33.8461 40.7831 33.2175 40.6535C34.5751 42.8246 36.1546 44.5303 37.9771 46.0006C39.2582 47.032 40.6132 47.976 41.9681 48.9095C46.8599 52.2812 49.8551 56.8614 50.8033 62.7427C50.9037 63.3589 51.152 63.6868 51.741 63.9513C54.0257 64.972 55.4415 67.3282 55.209 69.7638C55.1456 70.4328 55.3728 70.6788 55.8958 70.9644C67.3247 77.1947 67.9005 91.6018 61.0384 99.4267C60.7769 99.7229 60.5049 100.011 60.2222 100.289C59.3797 101.109 58.471 101.191 57.7817 100.524C57.087 99.8498 57.124 98.9111 57.9534 98.0886C59.826 96.2269 61.0252 93.995 61.7278 91.4695C63.6903 84.4141 60.7928 77.2873 54.5513 73.8363C54.3532 73.7252 54.1446 73.63 53.8937 73.5057C53.7484 73.712 53.619 73.8891 53.4975 74.0743C51.4267 77.2 47.5413 77.914 44.5144 75.7244C41.6697 73.667 41.2312 69.814 43.4948 66.8893C44.6174 65.4374 45.7769 64.0517 47.7288 63.5731C47.5017 61.4655 46.8308 59.5614 45.8667 57.7526C44.62 55.4149 42.9058 53.4765 40.7505 51.9401C40.4494 51.7259 40.0373 51.5276 39.6887 51.5487C36.3157 51.7418 33.0564 51.2234 29.8841 50.0943C29.7626 50.0519 29.6306 50.0414 29.414 49.9991V51.5831C29.414 58.0171 29.4351 64.4511 29.4061 70.885C29.3876 74.8702 30.6184 78.3794 33.1303 81.4708C37.5572 86.9237 41.9549 92.4004 46.3633 97.8691C46.5482 98.0992 46.7542 98.324 46.8915 98.5832C47.3036 99.35 47.2006 100.069 46.5165 100.619C45.8245 101.175 45.0796 101.114 44.4642 100.5C43.9518 99.9927 43.5239 99.3976 43.0696 98.8317C38.9887 93.7755 34.9396 88.6981 30.8245 83.671C27.7315 79.8947 26.1995 75.6186 26.2365 70.729C26.2867 64.2289 26.2629 57.7288 26.2418 51.2287C26.2312 47.8835 23.2307 45.6093 20.1219 46.5401C18.2624 47.0981 16.7859 48.8196 16.7859 50.766C16.7859 57.0333 16.6353 63.3113 16.9893 69.5628C17.3511 75.9518 20.0215 81.5422 24.3348 86.2599C27.9164 90.179 31.6353 93.9712 35.2936 97.8189C35.4969 98.0331 35.7294 98.2341 35.8826 98.4827C36.3395 99.2178 36.3052 99.9477 35.6607 100.545C35.0558 101.106 34.3532 101.138 33.6771 100.641C33.4129 100.447 33.1937 100.196 32.9666 99.9556C29.3717 96.1846 25.7769 92.411 22.19 88.632C22.0791 88.5157 22.0289 88.3385 21.9497 88.1904L21.6934 88.2962C21.5244 88.9388 21.3554 89.5814 21.189 90.2266C20.209 94.0452 18.2439 97.327 15.6924 100.286C15.0162 101.072 14.1314 101.191 13.4209 100.633C12.6734 100.048 12.573 99.112 13.2677 98.2711C14.8736 96.3327 16.3237 94.3044 17.2877 91.9588C18.2096 89.711 18.7352 87.3733 18.8408 84.9483C18.8567 84.586 18.7246 84.1629 18.5318 83.8508C15.1351 78.3451 13.5371 72.3554 13.5899 65.8923C13.6295 61.0741 13.5424 56.2559 13.6348 51.4403C13.6586 50.1577 14.1314 48.8831 14.4061 47.6085C14.4668 47.3229 14.6095 47.0478 14.6332 46.7622C15.0215 42.1291 15.3966 37.4987 15.7716 32.8656C15.7875 32.6725 15.7716 32.4795 15.7716 32.1595H15.7637ZM35.2117 48.2987C35.3015 48.1532 35.3886 48.0051 35.4784 47.8597C35.209 47.6852 34.9079 47.5424 34.6781 47.3282C32.6602 45.4506 30.9354 43.3297 29.6728 40.8757C29.2476 40.0453 28.7722 39.5429 27.8054 39.4027C26.6591 39.2361 26.0859 38.411 26.2867 37.5013C26.5006 36.5308 27.3432 36.1024 28.5371 36.3616C30.8852 36.8719 33.236 37.3665 35.5762 37.9059C36.9312 38.218 38.0167 37.8504 38.9729 36.8587C40.9829 34.7722 42.0025 32.2653 42.2402 29.4093C42.3485 28.0976 42.9798 27.1906 44.1974 26.6881C44.4298 26.5929 44.6438 26.4607 44.8551 26.3523C44.8234 26.2227 44.8234 26.1486 44.7917 26.0984C44.5962 25.7943 44.3982 25.4902 44.1895 25.1913C42.6839 23.0335 42.1927 20.6349 42.5043 18.0487C42.6522 16.8375 42.8371 15.6316 42.9771 14.4204C43.1937 12.5852 42.8873 10.8398 42.0632 9.03632C39.7574 12.1383 36.6934 13.3521 33.0299 13.278C32.2111 16.0441 30.8112 18.4427 28.957 20.5847C27.6258 22.1238 26.2629 22.3565 24.488 21.3622C23.442 20.7777 22.4806 21.0528 21.9681 22.1343C21.5112 23.0996 21.5904 24.0727 22.1715 24.9586C23.0643 26.3179 24.3823 26.9579 25.975 27.1483C26.9206 27.262 27.4938 27.9945 27.4224 28.8381C27.3458 29.7292 26.601 30.3771 25.629 30.2687C24.8841 30.1867 24.0072 30.1603 23.4446 29.753C21.91 28.6477 20.7082 29.203 19.5144 30.2317C19.3242 30.3957 19.1499 30.6707 19.1208 30.914C18.8725 33.0057 18.6374 35.1028 18.4394 37.1999C18.2307 39.4212 18.0643 41.6452 17.8715 43.9855C18.3073 43.8242 18.5767 43.7185 18.8514 43.6259C21.395 42.7823 23.7537 43.1446 26.0252 44.5673C27.3828 45.4162 28.7986 46.2201 30.2803 46.8125C31.8678 47.4472 33.5635 47.8121 35.2143 48.296L35.2117 48.2987ZM26.3606 18.7256C27.882 17.0411 29.0495 15.1873 29.7653 13.0665C30.592 10.6124 31.2391 10.1444 33.8408 10.0888C36.1097 10.0412 38.0035 9.20028 39.3638 7.32271C40.1536 6.23055 40.1324 6.07981 39.0812 5.28383C37.293 3.92986 35.2777 3.19999 33.0352 3.18148C29.8392 3.15503 26.6459 3.14975 23.4499 3.18148C19.3057 3.22115 15.6924 5.70165 14.1816 9.56257C11.527 16.3456 14.0653 22.0074 18.1171 27.4259L19.3216 26.5004C18.0458 23.5703 18.4103 20.9338 20.2724 19.1752C21.9497 17.5938 23.7748 17.4404 26.3659 18.723L26.3606 18.7256ZM15.069 28.7085C12.5756 24.8846 10.143 21.0739 10.0004 16.3588C7.1187 16.5625 4.6253 18.7151 3.92271 21.5023C3.17786 24.4668 4.37438 27.5185 6.92852 29.166C9.45626 30.7976 12.6522 30.6548 15.069 28.7058V28.7085ZM45.209 70.8348C45.209 72.12 45.9697 73.1646 47.2111 73.5903C48.5318 74.0425 49.8313 73.7411 50.5841 72.6991C51.0807 72.0089 51.5165 71.2579 51.8598 70.4804C52.3089 69.4702 52.1345 68.4706 51.4372 67.6085C50.7663 66.7782 49.863 66.4238 48.8091 66.5719C47.2693 66.7914 45.209 69.2587 45.209 70.8348Z" fill="#A9448B"/>
</svg>
