<svg width="34" height="34" viewBox="0 0 34 34" fill="none" xmlns="http://www.w3.org/2000/svg">
<path d="M17.0004 3.40039C21.4004 3.40039 22.0004 3.40039 23.8004 3.40039C25.4004 3.40039 26.2004 3.80039 26.8004 4.00039C27.6004 4.40039 28.2004 4.60039 28.8004 5.20039C29.4004 5.80039 29.8004 6.40039 30.0004 7.20039C30.2004 7.80039 30.4004 8.60039 30.6004 10.2004C30.6004 12.0004 30.6004 12.4004 30.6004 17.0004C30.6004 21.6004 30.6004 22.0004 30.6004 23.8004C30.6004 25.4004 30.2004 26.2004 30.0004 26.8004C29.6004 27.6004 29.4004 28.2004 28.8004 28.8004C28.2004 29.4004 27.6004 29.8004 26.8004 30.0004C26.2004 30.2004 25.4004 30.4004 23.8004 30.6004C22.0004 30.6004 21.6004 30.6004 17.0004 30.6004C12.4004 30.6004 12.0004 30.6004 10.2004 30.6004C8.60039 30.6004 7.80039 30.2004 7.20039 30.0004C6.40039 29.6004 5.80039 29.4004 5.20039 28.8004C4.60039 28.2004 4.20039 27.6004 4.00039 26.8004C3.80039 26.2004 3.60039 25.4004 3.40039 23.8004C3.40039 22.0004 3.40039 21.6004 3.40039 17.0004C3.40039 12.4004 3.40039 12.0004 3.40039 10.2004C3.40039 8.60039 3.80039 7.80039 4.00039 7.20039C4.40039 6.40039 4.60039 5.80039 5.20039 5.20039C5.80039 4.60039 6.40039 4.20039 7.20039 4.00039C7.80039 3.80039 8.60039 3.60039 10.2004 3.40039C12.0004 3.40039 12.6004 3.40039 17.0004 3.40039ZM17.0004 0.400391C12.4004 0.400391 12.0004 0.400391 10.2004 0.400391C8.40039 0.400391 7.20039 0.800392 6.20039 1.20039C5.20039 1.60039 4.20039 2.20039 3.20039 3.20039C2.20039 4.20039 1.80039 5.00039 1.20039 6.20039C0.800392 7.20039 0.600391 8.40039 0.400391 10.2004C0.400391 12.0004 0.400391 12.6004 0.400391 17.0004C0.400391 21.6004 0.400391 22.0004 0.400391 23.8004C0.400391 25.6004 0.800392 26.8004 1.20039 27.8004C1.60039 28.8004 2.20039 29.8004 3.20039 30.8004C4.20039 31.8004 5.00039 32.2004 6.20039 32.8004C7.20039 33.2004 8.40039 33.4004 10.2004 33.6004C12.0004 33.6004 12.6004 33.6004 17.0004 33.6004C21.4004 33.6004 22.0004 33.6004 23.8004 33.6004C25.6004 33.6004 26.8004 33.2004 27.8004 32.8004C28.8004 32.4004 29.8004 31.8004 30.8004 30.8004C31.8004 29.8004 32.2004 29.0004 32.8004 27.8004C33.2004 26.8004 33.4004 25.6004 33.6004 23.8004C33.6004 22.0004 33.6004 21.4004 33.6004 17.0004C33.6004 12.6004 33.6004 12.0004 33.6004 10.2004C33.6004 8.40039 33.2004 7.20039 32.8004 6.20039C32.4004 5.20039 31.8004 4.20039 30.8004 3.20039C29.8004 2.20039 29.0004 1.80039 27.8004 1.20039C26.8004 0.800392 25.6004 0.600391 23.8004 0.400391C22.0004 0.400391 21.6004 0.400391 17.0004 0.400391Z" fill="white"/>
<path d="M17.0004 8.40039C12.2004 8.40039 8.40039 12.2004 8.40039 17.0004C8.40039 21.8004 12.2004 25.6004 17.0004 25.6004C21.8004 25.6004 25.6004 21.8004 25.6004 17.0004C25.6004 12.2004 21.8004 8.40039 17.0004 8.40039ZM17.0004 22.6004C14.0004 22.6004 11.4004 20.2004 11.4004 17.0004C11.4004 14.0004 13.8004 11.4004 17.0004 11.4004C20.0004 11.4004 22.6004 13.8004 22.6004 17.0004C22.6004 20.0004 20.0004 22.6004 17.0004 22.6004Z" fill="white"/>
<path d="M25.8004 10.2004C26.905 10.2004 27.8004 9.30496 27.8004 8.20039C27.8004 7.09582 26.905 6.20039 25.8004 6.20039C24.6958 6.20039 23.8004 7.09582 23.8004 8.20039C23.8004 9.30496 24.6958 10.2004 25.8004 10.2004Z" fill="white"/>
</svg>
