<svg width="210" height="40" viewBox="0 0 210 40" fill="none" xmlns="http://www.w3.org/2000/svg">
<path d="M13.0081 6.10796C13.016 6.04323 13.0245 5.9785 13.0324 5.91443C13.037 5.87062 13.0416 5.82681 13.0462 5.78235C13.306 4.40079 13.8748 3.16112 14.8754 2.16401C16.8811 0.165884 19.283 -0.467031 21.9999 0.34242C24.2044 0.998874 25.6767 2.48962 26.4785 4.63094C26.7593 5.38155 26.8754 6.16812 26.878 6.96907C26.8833 8.33036 26.8807 9.69165 26.8839 11.0529C26.8852 11.612 27.193 11.9147 27.7572 11.916C29.0687 11.918 30.3803 11.916 31.6918 11.916C34.54 11.9173 36.692 13.1688 38.0363 15.6396C39.0251 17.4566 39.1005 19.4077 38.3486 21.3587C37.701 23.0398 36.5384 24.2677 34.9369 25.0699C34.021 25.5289 33.0342 25.7708 32.0002 25.7754C30.2957 25.7826 28.5905 25.7852 26.8859 25.7891C26.2278 25.7891 25.5698 25.7891 24.9117 25.7898C24.7811 25.7852 24.6506 25.7774 24.5194 25.7774C21.4547 25.7761 18.3901 25.7761 15.3261 25.7761C15.1955 25.7761 15.065 25.7859 14.9344 25.7904C14.0618 25.8892 13.1032 25.2275 12.9668 24.4422C12.9313 24.2369 12.9392 24.0323 12.9084 23.8289C12.9812 23.7086 12.9595 23.5752 12.9595 23.4464C12.9602 20.3773 12.9602 17.3089 12.9595 14.2397C12.9595 14.1109 12.9819 13.9769 12.9097 13.8573C12.9097 13.2132 12.9097 12.5692 12.9097 11.9252L12.9077 11.9062C12.9891 11.8565 12.97 11.7735 12.9707 11.7015C12.9779 9.86034 12.9838 8.01913 12.9897 6.17792L12.9878 6.18185C12.9943 6.157 13.0015 6.13216 13.0081 6.10796ZM24.3855 23.8165C26.8341 23.8165 29.282 23.806 31.7305 23.8204C32.9981 23.8276 34.105 23.4321 35.0845 22.6422C36.8494 21.2188 37.394 18.5551 36.3003 16.57C35.3279 14.806 33.8202 13.8952 31.7988 13.8762C29.8423 13.8579 27.8858 13.8723 25.9293 13.8723C25.1669 13.8723 24.911 13.6186 24.911 12.851C24.9097 10.8686 24.9222 8.88678 24.9051 6.90434C24.8927 5.39463 24.3061 4.11572 23.1402 3.15915C21.5499 1.85475 19.7475 1.56117 17.8672 2.42097C16.0393 3.25658 14.9711 4.74079 14.9502 6.75853C14.897 11.8552 14.9278 16.9525 14.937 22.0492C14.939 23.1123 15.6843 23.8159 16.7452 23.8159C19.2922 23.8159 21.8385 23.8159 24.3855 23.8159V23.8165Z" fill="#A9448B"/>
<path d="M12.9096 11.9238C12.9096 12.5678 12.9096 13.2118 12.9096 13.8558C12.7678 13.8604 12.6261 13.8683 12.4838 13.8683C10.7346 13.8689 8.98543 13.8643 7.23627 13.8696C5.14069 13.8768 3.41974 15.2976 3.03724 17.3434C2.90208 18.0659 2.97622 18.8002 2.97491 19.5285C2.97163 21.9621 4.83364 23.8131 7.26776 23.8151C9.14814 23.8164 11.0285 23.823 12.9082 23.8269C12.9397 24.0302 12.9312 24.2349 12.9666 24.4402C13.1025 25.2261 14.0617 25.8878 14.9343 25.7884C14.9343 27.727 14.9264 29.665 14.9343 31.6036C14.9422 33.522 16.3803 35.2507 18.2528 35.613C19.1523 35.7869 20.063 35.7516 20.9658 35.6953C23.207 35.5554 24.9031 33.7371 24.9103 31.5049C24.9168 29.599 24.9116 27.693 24.9116 25.7877C25.5696 25.7877 26.2277 25.7877 26.8858 25.7871C26.8838 27.6603 26.8858 29.5342 26.8799 31.4075C26.8753 32.8217 26.4915 34.1176 25.6149 35.2449C24.474 36.7108 22.9656 37.5444 21.1128 37.6536C20.0492 37.7164 18.9713 37.7687 17.9097 37.5542C15.0274 36.9723 12.9706 34.4674 12.968 31.5369C12.9666 29.7291 12.962 27.9206 12.9739 26.1127C12.9758 25.8374 12.8899 25.7668 12.6215 25.7688C10.8291 25.7799 9.03595 25.7786 7.24349 25.7734C4.05091 25.7635 1.42061 23.5215 1.07747 20.3596C0.918035 18.8911 0.83143 17.3735 1.39699 15.9344C2.21449 13.8539 3.71892 12.5554 5.90504 12.0526C6.2121 11.9819 6.53096 11.9296 6.84523 11.9283C8.86733 11.9179 10.8894 11.9231 12.9109 11.9238H12.9096Z" fill="#6D7781"/>
<path d="M12.9897 6.17969C12.9838 8.0209 12.9786 9.8621 12.9707 11.7033C12.9707 11.7752 12.9891 11.8583 12.9077 11.908C12.9084 10.1341 12.9084 8.36089 12.911 6.58703C12.911 6.44776 12.8907 6.3013 12.9891 6.17969H12.9897Z" fill="#333333"/>
<path d="M13.0463 5.78125C13.0417 5.82506 13.0371 5.86886 13.0325 5.91333C12.9643 5.86167 12.9754 5.81852 13.0463 5.78125Z" fill="#333333"/>
<path d="M13.0081 6.10938C13.0016 6.13422 12.9944 6.15907 12.9878 6.18326C12.9944 6.15841 13.0016 6.13357 13.0081 6.10938Z" fill="#333333"/>
<path d="M116.906 24.8929C116.906 24.4925 116.906 24.1001 116.906 23.7099C116.906 19.1821 116.925 14.6542 116.89 10.1264C116.884 9.31524 117.062 8.98423 117.952 9.00058C119.781 9.03531 119.783 8.98628 119.783 10.7925C119.783 16.7833 119.783 22.7761 119.783 28.7669C119.783 29.006 119.777 29.243 119.768 29.482C119.746 30.1543 119.483 30.6753 118.809 30.9001C118.104 31.135 117.552 30.8939 117.103 30.3218C115.338 28.0702 113.56 25.8267 111.793 23.5771C109.753 20.9781 107.719 18.3729 105.675 15.778C105.519 15.5819 105.394 15.2018 105.088 15.3101C104.727 15.4368 104.879 15.8393 104.879 16.1213C104.871 20.5817 104.842 25.04 104.898 29.5004C104.91 30.5445 104.611 30.9164 103.571 30.7734C102.855 30.6753 102.041 31.0676 102.056 29.7089C102.124 23.479 102.085 17.2492 102.085 11.0193C102.085 10.8824 102.089 10.7475 102.089 10.6107C102.085 9.88121 102.409 9.35406 103.106 9.12318C103.788 8.89638 104.287 9.22125 104.699 9.74841C106.253 11.7344 107.813 13.7143 109.369 15.6983C111.618 18.567 113.864 21.4378 116.119 24.3024C116.297 24.5272 116.398 24.8602 116.906 24.895V24.8929Z" fill="#6D7781"/>
<path d="M142.689 20.1093C143.577 20.1093 144.464 20.1277 145.352 20.1032C145.859 20.0889 146.09 20.236 146.084 20.7897C146.072 22.0504 146.07 23.307 145.781 24.5431C144.887 28.3599 141.791 30.7566 137.84 31.0039C131.98 31.3696 128.49 27.2484 127.91 22.5448C127.478 19.0366 127.689 15.6591 129.895 12.7066C132.093 9.76639 135.049 8.45667 138.683 9.25967C142.443 10.0913 144.805 12.5003 145.807 16.223C146.021 17.0179 145.75 17.3039 144.961 17.2038C144.76 17.1772 144.546 17.1711 144.348 17.2038C143.402 17.3632 142.931 17.0219 142.595 16.0637C141.785 13.7446 139.474 12.1856 136.96 12.204C134.328 12.2244 132.489 13.5464 131.506 15.9554C130.182 19.2041 130.268 22.4284 132.14 25.4442C133.483 27.61 135.669 28.0984 138.051 27.8409C140.29 27.5978 141.984 26.5557 142.754 24.3286C143.111 23.2967 143.06 23.2211 142.008 23.215C141.803 23.215 141.598 23.215 141.393 23.215C139.08 23.215 138.859 22.929 139.214 20.6058C139.291 20.097 139.579 20.1175 139.925 20.1154C140.848 20.1134 141.768 20.1154 142.691 20.1154V20.1072L142.689 20.1093Z" fill="#6D7680"/>
<path d="M75.1069 23.9805C75.1069 22.0067 74.99 20.0268 75.1315 18.0633C75.4431 13.7275 78.781 9.88211 82.7422 9.11794C86.156 8.46001 89.5882 10.1314 91.6242 13.4455C92.7395 15.2579 93.3116 17.2337 93.328 19.3525C93.3526 22.7893 93.3136 26.2281 93.3628 29.6648C93.3751 30.5168 93.1168 30.7886 92.27 30.7579C90.2935 30.6864 90.6052 30.9541 90.5949 29.06C90.5765 25.8603 90.6544 22.6606 90.5703 19.4629C90.4944 16.5758 89.3873 14.1402 86.7813 12.6507C83.9581 11.0386 80.2942 12.3973 78.8118 15.5378C78.3464 16.5226 78.0347 17.5545 77.8809 18.6517C77.7497 19.5875 77.9568 19.9349 78.9697 19.9063C81.3255 19.8409 83.6833 19.9144 86.0391 19.8674C86.8367 19.8511 87.1832 20.0718 87.0397 20.8911C86.9987 21.122 87.0048 21.3713 87.0397 21.6042C87.1442 22.2846 86.8592 22.4726 86.1929 22.4624C83.7694 22.4256 81.3419 22.4746 78.9184 22.4276C78.086 22.4113 77.7743 22.6463 77.7989 23.5146C77.8584 25.5558 77.7928 27.5991 77.842 29.6403C77.8625 30.4657 77.6267 30.8683 76.7512 30.7498C76.5154 30.7191 76.2694 30.7171 76.0357 30.7477C75.2155 30.854 74.9654 30.4943 74.9838 29.6995C75.029 27.7952 74.9982 25.8889 74.9982 23.9825H75.1028L75.1069 23.9805Z" fill="#A7458A"/>
<path d="M181.589 25.8124C182.014 25.5243 182.034 25.087 182.153 24.7192C183.656 20.0627 185.141 15.4021 186.647 10.7475C186.787 10.3185 186.736 9.67689 187.283 9.55839C188.113 9.37858 188.995 9.34384 189.819 9.57677C190.322 9.71775 189.965 10.1754 189.881 10.4451C188.999 13.3036 188.097 16.154 187.187 19.0023C186.041 22.5943 184.862 26.1761 183.746 29.7783C183.554 30.4036 183.297 30.6406 182.635 30.663C179.918 30.755 179.947 30.7673 179.121 28.1785C177.273 22.3818 175.395 16.5953 173.526 10.8068C173.076 9.41536 173.083 9.38266 174.545 9.40105C176.484 9.42353 176.201 9.07414 176.843 11.0765C178.37 15.8332 179.857 20.6001 181.364 25.3629C181.411 25.512 181.505 25.6469 181.589 25.8144V25.8124Z" fill="#A64488"/>
<path d="M194.757 20.6064C194.757 17.7152 194.753 14.824 194.757 11.9328C194.761 10.2349 195.487 9.49526 197.172 9.49117C201.098 9.48095 205.023 9.50751 208.947 9.47277C209.747 9.46664 210.019 9.69754 209.997 10.5128C209.956 12.0391 210.003 12.0391 208.436 12.037C205.365 12.035 202.292 12.0371 199.22 12.033C197.623 12.033 197.506 12.1494 197.506 13.7963C197.506 18.9657 197.512 24.1351 197.494 29.3065C197.494 29.7336 197.783 30.3976 197.166 30.5509C196.454 30.7286 195.659 30.7593 194.947 30.5121C194.595 30.3895 194.744 29.9073 194.744 29.5844C194.734 26.5911 194.738 23.5977 194.738 20.6044H194.755L194.757 20.6064Z" fill="#6D7680"/>
<path d="M164.221 20.0627C164.221 16.9039 164.246 13.743 164.205 10.5841C164.195 9.76682 164.394 9.44399 165.273 9.47464C167.772 9.56045 167.397 9.1702 167.403 11.5628C167.422 17.5414 167.389 23.5219 167.428 29.5005C167.434 30.3995 167.186 30.6651 166.282 30.6426C164.217 30.5916 164.215 30.6386 164.217 28.6239C164.217 25.7695 164.217 22.9171 164.217 20.0627H164.221Z" fill="#6F7982"/>
<path d="M59.0097 11.8342C56.3812 11.8342 53.7527 11.8076 51.1262 11.8485C50.3123 11.8608 49.9657 11.6687 50.0027 10.7819C50.0888 8.79999 49.7628 9.03292 51.7454 9.02679C56.7297 9.01044 61.712 9.04518 66.6963 9.00023C67.6517 8.99205 68.1171 9.2025 67.9408 10.2241C67.8998 10.455 67.908 10.7022 67.9408 10.9372C68.0392 11.6769 67.6825 11.8546 66.9977 11.8485C64.3364 11.8199 61.673 11.8362 59.0117 11.8362L59.0097 11.8342Z" fill="#6E7781"/>
<path d="M60.3691 22.6118C60.3691 24.9942 60.3465 27.3786 60.3814 29.7611C60.3916 30.4823 60.2317 30.8011 59.4218 30.7745C57.1788 30.703 57.5089 31.0136 57.5007 28.8866C57.4822 24.4609 57.5232 20.0352 57.472 15.6096C57.4617 14.637 57.7242 14.2038 58.7247 14.353C58.8908 14.3775 59.0692 14.3754 59.2352 14.353C60.1025 14.2324 60.4183 14.5328 60.3916 15.4624C60.3219 17.8428 60.3691 20.2273 60.367 22.6097L60.3691 22.6118Z" fill="#6C757E"/>
<path d="M204.436 21.3556C203.274 21.3556 202.111 21.327 200.953 21.3679C200.254 21.3924 199.989 21.1635 199.985 20.4402C199.975 18.824 199.94 18.824 201.586 18.822C203.637 18.822 205.687 18.8465 207.735 18.8016C208.527 18.7852 208.805 19.0222 208.779 19.8395C208.73 21.3515 208.779 21.3536 207.307 21.3536C206.349 21.3536 205.394 21.3536 204.436 21.3536V21.3556Z" fill="#6A747C"/>
</svg>
